<svg viewBox="0 0 200 200" xmlns="http://www.w3.org/2000/svg" fill-rule="evenodd" clip-rule="evenodd" stroke-linejoin="round" stroke-miterlimit="2"><circle cx="100" cy="100" r="100" fill="#f0cb87"/><path d="M160.291,53.292c0,-0.344 -0.136,-0.674 -0.38,-0.917c-0.243,-0.244 -0.573,-0.381 -0.918,-0.381c-12.154,0 -105.832,0 -117.986,0c-0.345,0 -0.675,0.137 -0.918,0.381c-0.244,0.243 -0.38,0.573 -0.38,0.917c0,10.993 0,88.364 0,99.356c0,0.345 0.136,0.675 0.38,0.918c0.243,0.244 0.573,0.38 0.918,0.38c12.154,0 105.832,0 117.986,0c0.345,0 0.675,-0.136 0.918,-0.38c0.244,-0.243 0.38,-0.573 0.38,-0.918c0,-10.992 0,-88.363 0,-99.356Z" fill="#231f20" fill-opacity=".25"/><path d="M160.291,47.352c0,-0.345 -0.136,-0.675 -0.38,-0.918c-0.243,-0.244 -0.573,-0.38 -0.918,-0.38c-12.154,0 -105.832,0 -117.986,0c-0.345,0 -0.675,0.136 -0.918,0.38c-0.244,0.243 -0.38,0.573 -0.38,0.918c0,11.182 0,91.114 0,102.296c0,0.345 0.136,0.675 0.38,0.918c0.243,0.244 0.573,0.38 0.918,0.38c12.154,0 105.832,0 117.986,0c0.345,0 0.675,-0.136 0.918,-0.38c0.244,-0.243 0.38,-0.573 0.38,-0.918c0,-11.182 0,-91.114 0,-102.296Z" fill="#4e5c73"/><path d="M160.291,56.43l-120.582,0l0,93.218c0,0.345 0.136,0.675 0.38,0.918c0.243,0.244 0.573,0.38 0.918,0.38c12.154,0 105.832,0 117.986,0c0.345,0 0.675,-0.136 0.918,-0.38c0.244,-0.243 0.38,-0.573 0.38,-0.918c0,-11.344 0,-93.218 0,-93.218Z" fill="#231f20" fill-opacity=".5"/><g opacity=".25" fill="#231f20"><circle cx="45.27" cy="51.921" r="2.798"/><circle cx="54.936" cy="51.921" r="2.798"/><circle cx="64.601" cy="51.921" r="2.798"/></g><circle cx="45.27" cy="50.941" r="2.798" fill="#c35b5d"/><circle cx="54.936" cy="50.941" r="2.798" fill="#f0cb87"/><circle cx="64.601" cy="50.941" r="2.798" fill="#74beae"/><g><path d="M98.449,130.224c-0.148,0.726 -0.786,1.248 -1.527,1.248c-0.935,0 -2.221,0 -3.278,0c-0.468,0 -0.911,-0.21 -1.206,-0.572c-0.296,-0.362 -0.414,-0.838 -0.321,-1.296c1.637,-8.06 8.074,-39.753 9.434,-46.452c0.148,-0.726 0.786,-1.248 1.527,-1.248c0.935,0 2.221,0 3.278,0c0.468,0 0.911,0.21 1.206,0.572c0.296,0.362 0.414,0.838 0.321,1.296c-1.637,8.06 -8.074,39.753 -9.434,46.452Zm-15.744,-47.879c0.43,-0.43 1.077,-0.559 1.639,-0.326c0.563,0.233 0.929,0.782 0.929,1.39c0,1.41 0,2.876 0,3.681c0,0.399 -0.158,0.782 -0.44,1.064c-2.398,2.398 -13.894,13.894 -17.47,17.47c-0.588,0.588 -0.588,1.541 0,2.128c3.576,3.576 15.072,15.072 17.47,17.47c0.282,0.282 0.44,0.665 0.44,1.064c0,0.805 0,2.272 0,3.681c0,0.609 -0.366,1.157 -0.929,1.39c-0.562,0.233 -1.209,0.105 -1.639,-0.326c-5.733,-5.732 -19.37,-19.37 -23.279,-23.279c-0.588,-0.587 -0.588,-1.54 0,-2.128c3.909,-3.909 17.546,-17.547 23.279,-23.279Zm34.59,0c-0.43,-0.43 -1.077,-0.559 -1.639,-0.326c-0.563,0.233 -0.929,0.782 -0.929,1.39c0,1.41 0,2.876 0,3.681c0,0.399 0.158,0.782 0.44,1.064c2.398,2.398 13.894,13.894 17.47,17.47c0.588,0.588 0.588,1.541 0,2.128c-3.576,3.576 -15.072,15.072 -17.47,17.47c-0.282,0.282 -0.44,0.665 -0.44,1.064c0,0.805 0,2.272 0,3.681c0,0.609 0.366,1.157 0.929,1.39c0.562,0.233 1.209,0.105 1.639,-0.326c5.733,-5.732 19.37,-19.37 23.279,-23.279c0.588,-0.587 0.588,-1.54 0,-2.128c-3.909,-3.909 -17.546,-17.547 -23.279,-23.279Z" fill="#231f20" fill-opacity=".25"/><path d="M98.449,127.224c-0.148,0.726 -0.786,1.248 -1.527,1.248c-0.935,0 -2.221,0 -3.278,0c-0.468,0 -0.911,-0.21 -1.206,-0.572c-0.296,-0.362 -0.414,-0.838 -0.321,-1.296c1.637,-8.06 8.074,-39.753 9.434,-46.452c0.148,-0.726 0.786,-1.248 1.527,-1.248c0.935,0 2.221,0 3.278,0c0.468,0 0.911,0.21 1.206,0.572c0.296,0.362 0.414,0.838 0.321,1.296c-1.637,8.06 -8.074,39.753 -9.434,46.452Zm-15.744,-47.879c0.43,-0.43 1.077,-0.559 1.639,-0.326c0.563,0.233 0.929,0.782 0.929,1.39c0,1.41 0,2.876 0,3.681c0,0.399 -0.158,0.782 -0.44,1.064c-2.398,2.398 -13.894,13.894 -17.47,17.47c-0.588,0.588 -0.588,1.541 0,2.128c3.576,3.576 15.072,15.072 17.47,17.47c0.282,0.282 0.44,0.665 0.44,1.064c0,0.805 0,2.272 0,3.681c0,0.609 -0.366,1.157 -0.929,1.39c-0.562,0.233 -1.209,0.105 -1.639,-0.326c-5.733,-5.732 -19.37,-19.37 -23.279,-23.279c-0.588,-0.587 -0.588,-1.54 0,-2.128c3.909,-3.909 17.546,-17.547 23.279,-23.279Zm34.59,0c-0.43,-0.43 -1.077,-0.559 -1.639,-0.326c-0.563,0.233 -0.929,0.782 -0.929,1.39c0,1.41 0,2.876 0,3.681c0,0.399 0.158,0.782 0.44,1.064c2.398,2.398 13.894,13.894 17.47,17.47c0.588,0.588 0.588,1.541 0,2.128c-3.576,3.576 -15.072,15.072 -17.47,17.47c-0.282,0.282 -0.44,0.665 -0.44,1.064c0,0.805 0,2.272 0,3.681c0,0.609 0.366,1.157 0.929,1.39c0.562,0.233 1.209,0.105 1.639,-0.326c5.733,-5.732 19.37,-19.37 23.279,-23.279c0.588,-0.587 0.588,-1.54 0,-2.128c-3.909,-3.909 -17.546,-17.547 -23.279,-23.279Z" fill="#dcdccf"/></g></svg>