<?xml version="1.0" encoding="UTF-8" standalone="no"?>
<svg
   xmlns:dc="http://purl.org/dc/elements/1.1/"
   xmlns:cc="http://creativecommons.org/ns#"
   xmlns:rdf="http://www.w3.org/1999/02/22-rdf-syntax-ns#"
   xmlns:svg="http://www.w3.org/2000/svg"
   xmlns="http://www.w3.org/2000/svg"
   xmlns:sodipodi="http://sodipodi.sourceforge.net/DTD/sodipodi-0.dtd"
   xmlns:inkscape="http://www.inkscape.org/namespaces/inkscape"
   viewBox="0 0 400 200"
   fill-rule="evenodd"
   clip-rule="evenodd"
   stroke-linejoin="round"
   stroke-miterlimit="2"
   version="1.1"
   id="svg2804"
   sodipodi:docname="logo.svg"
   inkscape:version="1.0.2-2 (e86c870879, 2021-01-15)"
   width="400"
   height="200">
  <g
     aria-label="bhala"
     id="text858"
     style="font-style:normal;font-weight:normal;font-size:74.6667px;line-height:1.25;font-family:sans-serif;letter-spacing:0px;word-spacing:0px;fill:#2472c8;fill-opacity:1;stroke:none">
    <path
       d="m 229.08814,70.506653 q 0,4.480002 -0.29867,9.408005 -0.224,4.853335 -0.59733,9.482671 0.97066,-2.016001 2.53866,-3.434668 1.568,-1.493335 3.43467,-2.389335 1.94134,-0.896 4.032,-1.344001 2.09067,-0.448 4.03201,-0.448 3.36,0 6.272,1.269334 2.98667,1.194667 5.152,3.584002 2.24,2.314668 3.43467,5.824003 1.26933,3.434668 1.26933,7.914666 0,4.33067 -1.26933,7.91467 -1.26934,3.58401 -3.808,6.19734 -2.464,2.53867 -6.19734,3.95734 -3.65867,1.41866 -8.43734,1.41866 -6.496,0 -10.22933,-2.61333 -3.65867,-2.61334 -5.45067,-6.944 -1.792,-4.40534 -2.24001,-10.08001 -0.37333,-5.674669 -0.37333,-11.872005 0,-6.272003 0.224,-11.349339 0.224,-5.077335 0.672,-8.213337 0.448,-2.837335 1.49334,-4.032002 1.04533,-1.194667 2.76266,-1.194667 1.26934,0 2.016,0.597333 0.74667,0.522667 1.04534,1.493335 0.37333,0.970667 0.448,2.240001 0.0747,1.194667 0.0747,2.613334 z m 11.05067,18.666676 q -2.16534,0 -4.18134,0.746667 -1.94133,0.672 -3.50933,2.165334 -1.49334,1.493334 -2.38934,3.808002 -0.896,2.240001 -0.896,5.450668 0,5.67467 2.76267,8.66134 2.83733,2.912 7.54134,2.912 1.94133,0 3.95733,-0.52267 2.016,-0.59733 3.65867,-1.94133 1.64267,-1.41867 2.688,-3.73334 1.04534,-2.31466 1.04534,-5.74933 0,-3.061337 -0.896,-5.301338 -0.82134,-2.240001 -2.31467,-3.658669 -1.49334,-1.493334 -3.43467,-2.165334 -1.94133,-0.672 -4.032,-0.672 z"
       style="font-style:normal;font-variant:normal;font-weight:normal;font-stretch:normal;font-size:74.6667px;font-family:Sniglet;-inkscape-font-specification:Sniglet;fill:#2472c8;fill-opacity:1"
       id="path860" />
    <path
       d="m 282.4748,88.650662 q -2.76267,0 -5.00267,0.821334 -2.16534,0.821333 -4.928,2.240001 0,0.07467 0,1.418667 0,1.344001 -0.0747,3.434668 0,2.090668 -0.0747,4.703998 0,2.53867 -0.0747,5.15201 0,2.53866 -0.14934,4.85333 -0.0747,2.31467 -0.14933,3.88267 -0.14933,1.568 -0.37333,2.464 -0.14934,0.896 -0.448,1.344 -0.224,0.37334 -0.67201,0.448 -0.448,0.0747 -0.97066,0.0747 -1.26934,0 -2.016,-0.14933 -0.672,-0.0747 -1.12,-0.448 -0.448,-0.448 -0.672,-1.26934 -0.14934,-0.82133 -0.29867,-2.24 -0.14933,-1.41867 -0.29867,-3.88267 -0.0747,-2.53867 -0.14933,-5.6 -0.0747,-3.136 -0.14933,-6.645336 0,-3.509335 0,-6.944004 0,-3.434668 0,-7.24267 0.0747,-3.882668 0.14933,-7.392003 0.0747,-3.584002 0.14933,-6.34667 0.0747,-2.837335 0.224,-4.181335 0.14934,-1.941335 0.672,-3.360002 0.59734,-1.418667 2.53867,-1.418667 1.49333,0 2.38934,1.045333 0.97066,1.045334 1.12,3.957336 0.14933,2.613334 0.224,7.317336 0.14933,4.629336 0.224,10.453339 1.04533,-0.821334 2.53866,-1.493334 1.49334,-0.746667 3.13601,-1.194667 1.64266,-0.522667 3.36,-0.821334 1.71733,-0.298667 3.21067,-0.298667 3.584,0 6.19733,1.717334 2.688,1.642668 4.256,4.778669 1.04534,2.016001 1.568,4.480002 0.52267,2.389335 0.74667,5.077336 0.0747,1.194667 0.14933,2.389334 0.0747,1.12 0.0747,2.464 0.0747,1.26934 0.0747,2.912 0,1.64267 0,3.88267 0,2.24 -0.0747,4.18134 -0.0747,1.86666 -0.448,3.28533 -0.29867,1.344 -1.04533,2.16534 -0.74667,0.74666 -2.09067,0.74666 -1.94133,0 -2.912,-1.19466 -0.896,-1.26934 -0.896,-2.98667 0,-0.0747 0,-1.568 0,-1.49334 -0.0747,-3.43467 0,-2.016 -0.0747,-4.032 0,-2.016 -0.0747,-3.28534 -0.0747,-1.19467 -0.224,-2.53867 -0.0747,-1.418663 -0.29867,-2.837331 -0.14933,-1.418667 -0.448,-2.688001 -0.29867,-1.344001 -0.74667,-2.389334 -1.04533,-2.464002 -2.61333,-3.136002 -1.568,-0.672 -3.36,-0.672 z"
       style="font-style:normal;font-variant:normal;font-weight:normal;font-stretch:normal;font-size:74.6667px;font-family:Sniglet;-inkscape-font-specification:Sniglet;fill:#2472c8;fill-opacity:1"
       id="path862" />
    <path
       d="m 337.05603,119.63734 q -1.19466,0 -1.94133,-0.37333 -0.672,-0.448 -1.04534,-1.12 -0.37333,-0.672 -0.52266,-1.568 -0.14934,-0.97067 -0.224,-2.016 -1.86667,2.31467 -4.85334,3.88267 -2.912,1.568 -7.46667,1.568 -2.912,0 -5.97333,-0.82134 -2.98667,-0.896 -5.45067,-2.98667 -2.46401,-2.16533 -4.03201,-5.74933 -1.568,-3.584 -1.568,-9.03467 0,-4.256004 1.04534,-7.989339 1.04533,-3.733335 3.136,-6.496003 2.16533,-2.837335 5.376,-4.480002 3.21067,-1.642668 7.54134,-1.642668 3.808,0 6.79467,1.418667 2.98667,1.344001 5.376,4.480003 0,-0.896001 0.0747,-1.792001 0.0747,-0.970667 0.37333,-1.717334 0.37333,-0.821334 1.12,-1.269334 0.74667,-0.522667 2.016,-0.522667 1.12,0 2.09067,0.896 0.97067,0.896001 1.12,3.882669 0.224,3.957335 0.29867,7.093336 0.14933,3.136002 0.14933,6.496003 0,4.10667 -0.0747,7.54134 -0.0747,3.43467 -0.37333,7.31733 -0.14933,1.71734 -0.448,2.76267 -0.224,0.97067 -0.59733,1.49334 -0.37334,0.448 -0.896,0.59733 -0.52267,0.14933 -1.04534,0.14933 z m -4.032,-18.96534 q 0,-3.882668 -1.19467,-6.346669 -1.12,-2.464001 -2.912,-3.808002 -1.71733,-1.418667 -3.73333,-1.941334 -2.016,-0.522667 -3.73334,-0.522667 -2.688,0 -4.62933,0.970667 -1.86667,0.970667 -3.06134,2.688002 -1.19467,1.642667 -1.792,3.957335 -0.52267,2.240001 -0.52267,4.927998 0,6.57067 2.83734,9.70668 2.912,3.136 7.84,3.136 2.912,0 4.928,-0.97067 2.09067,-1.04533 3.36001,-2.76267 1.344,-1.71733 1.94133,-4.032 0.672,-2.38933 0.672,-5.00267 z"
       style="font-style:normal;font-variant:normal;font-weight:normal;font-stretch:normal;font-size:74.6667px;font-family:Sniglet;-inkscape-font-specification:Sniglet;fill:#2472c8;fill-opacity:1"
       id="path864" />
    <path
       d="m 349.6747,115.00801 q -0.0747,-2.688 -0.14934,-6.27201 -0.0747,-3.584 -0.14933,-7.76533 0,-4.181338 -0.0747,-8.810673 0,-4.629336 0,-9.482671 0,-5.301336 0.0747,-9.109338 0.0747,-3.808002 0.37333,-6.272003 0.37334,-2.464001 1.12,-3.584002 0.74667,-1.194667 2.09067,-1.194667 1.26934,0 2.24,0.821334 0.97067,0.821333 1.12,3.808002 0.29867,5.376002 0.37334,11.200005 0.0747,5.749336 0.0747,11.349339 0,3.360001 0,6.496003 0,3.061335 -0.0747,6.122671 -0.0747,2.98667 -0.14934,6.12267 -0.0747,3.136 -0.224,6.496 -0.0747,1.792 -0.37333,2.76267 -0.224,0.97067 -0.672,1.49333 -0.448,0.52267 -1.04533,0.59734 -0.52267,0.14933 -1.26934,0.14933 -1.344,0 -2.24,-0.896 -0.896,-0.97067 -1.04533,-4.032 z"
       style="font-style:normal;font-variant:normal;font-weight:normal;font-stretch:normal;font-size:74.6667px;font-family:Sniglet;-inkscape-font-specification:Sniglet;fill:#2472c8;fill-opacity:1"
       id="path866" />
    <path
       d="m 396.56533,119.63734 q -1.19467,0 -1.94134,-0.37333 -0.672,-0.448 -1.04533,-1.12 -0.37334,-0.672 -0.52267,-1.568 -0.14933,-0.97067 -0.224,-2.016 -1.86667,2.31467 -4.85334,3.88267 -2.912,1.568 -7.46667,1.568 -2.912,0 -5.97333,-0.82134 -2.98667,-0.896 -5.45067,-2.98667 -2.464,-2.16533 -4.032,-5.74933 -1.568,-3.584 -1.568,-9.03467 0,-4.256004 1.04533,-7.989339 1.04533,-3.733335 3.136,-6.496003 2.16534,-2.837335 5.376,-4.480002 3.21067,-1.642668 7.54134,-1.642668 3.808,0 6.79467,1.418667 2.98667,1.344001 5.376,4.480003 0,-0.896001 0.0747,-1.792001 0.0747,-0.970667 0.37333,-1.717334 0.37334,-0.821334 1.12,-1.269334 0.74667,-0.522667 2.01601,-0.522667 1.12,0 2.09066,0.896 0.97067,0.896001 1.12,3.882669 0.224,3.957335 0.29867,7.093336 0.14933,3.136002 0.14933,6.496003 0,4.10667 -0.0747,7.54134 -0.0747,3.43467 -0.37334,7.31733 -0.14933,1.71734 -0.448,2.76267 -0.224,0.97067 -0.59733,1.49334 -0.37333,0.448 -0.896,0.59733 -0.52267,0.14933 -1.04533,0.14933 z M 392.53332,100.672 q 0,-3.882668 -1.19466,-6.346669 -1.12,-2.464001 -2.91201,-3.808002 -1.71733,-1.418667 -3.73333,-1.941334 -2.016,-0.522667 -3.73334,-0.522667 -2.688,0 -4.62933,0.970667 -1.86667,0.970667 -3.06134,2.688002 -1.19466,1.642667 -1.792,3.957335 -0.52266,2.240001 -0.52266,4.927998 0,6.57067 2.83733,9.70668 2.912,3.136 7.84,3.136 2.91201,0 4.92801,-0.97067 2.09066,-1.04533 3.36,-2.76267 1.344,-1.71733 1.94133,-4.032 0.672,-2.38933 0.672,-5.00267 z"
       style="font-style:normal;font-variant:normal;font-weight:normal;font-stretch:normal;font-size:74.6667px;font-family:Sniglet;-inkscape-font-specification:Sniglet;fill:#2472c8;fill-opacity:1"
       id="path868" />
  </g>
  <metadata
     id="metadata2810">
    <rdf:RDF>
      <cc:Work
         rdf:about="">
        <dc:format>image/svg+xml</dc:format>
        <dc:type
           rdf:resource="http://purl.org/dc/dcmitype/StillImage" />
        <dc:title />
      </cc:Work>
    </rdf:RDF>
  </metadata>
  <defs
     id="defs2808" />
  <sodipodi:namedview
     pagecolor="#ffffff"
     bordercolor="#666666"
     borderopacity="1"
     objecttolerance="10"
     gridtolerance="10"
     guidetolerance="10"
     inkscape:pageopacity="0"
     inkscape:pageshadow="2"
     inkscape:window-width="1920"
     inkscape:window-height="1028"
     id="namedview2806"
     showgrid="false"
     inkscape:zoom="2.095"
     inkscape:cx="231.85142"
     inkscape:cy="60.245187"
     inkscape:window-x="-6"
     inkscape:window-y="-6"
     inkscape:window-maximized="1"
     inkscape:current-layer="svg2804"
     inkscape:document-rotation="0" />
  <circle
     cx="100"
     cy="100"
     r="100"
     fill="#f0cb87"
     id="circle2776"
     style="fill:#29b8db;fill-opacity:1" />
  <path
     d="m 160.291,53.292 c 0,-0.344 -0.136,-0.674 -0.38,-0.917 -0.243,-0.244 -0.573,-0.381 -0.918,-0.381 -12.154,0 -105.832,0 -117.986,0 -0.345,0 -0.675,0.137 -0.918,0.381 -0.244,0.243 -0.38,0.573 -0.38,0.917 0,10.993 0,88.364 0,99.356 0,0.345 0.136,0.675 0.38,0.918 0.243,0.244 0.573,0.38 0.918,0.38 12.154,0 105.832,0 117.986,0 0.345,0 0.675,-0.136 0.918,-0.38 0.244,-0.243 0.38,-0.573 0.38,-0.918 0,-10.992 0,-88.363 0,-99.356 z"
     fill="#231f20"
     fill-opacity="0.25"
     id="path2778" />
  <path
     d="m 160.291,47.352 c 0,-0.345 -0.136,-0.675 -0.38,-0.918 -0.243,-0.244 -0.573,-0.38 -0.918,-0.38 -12.154,0 -105.832,0 -117.986,0 -0.345,0 -0.675,0.136 -0.918,0.38 -0.244,0.243 -0.38,0.573 -0.38,0.918 0,11.182 0,91.114 0,102.296 0,0.345 0.136,0.675 0.38,0.918 0.243,0.244 0.573,0.38 0.918,0.38 12.154,0 105.832,0 117.986,0 0.345,0 0.675,-0.136 0.918,-0.38 0.244,-0.243 0.38,-0.573 0.38,-0.918 0,-11.182 0,-91.114 0,-102.296 z"
     fill="#4e5c73"
     id="path2780"
     style="fill:#282e36;fill-opacity:1" />
  <path
     d="M 160.291,56.43 H 39.709 v 93.218 c 0,0.345 0.136,0.675 0.38,0.918 0.243,0.244 0.573,0.38 0.918,0.38 12.154,0 105.832,0 117.986,0 0.345,0 0.675,-0.136 0.918,-0.38 0.244,-0.243 0.38,-0.573 0.38,-0.918 0,-11.344 0,-93.218 0,-93.218 z"
     fill="#231f20"
     fill-opacity="0.5"
     id="path2782"
     style="fill:#060b11;fill-opacity:0.50196081" />
  <g
     opacity="0.25"
     fill="#231f20"
     id="g2790">
    <circle
       cx="45.27"
       cy="51.921001"
       r="2.7980001"
       id="circle2784" />
    <circle
       cx="54.936001"
       cy="51.921001"
       r="2.7980001"
       id="circle2786" />
    <circle
       cx="64.600998"
       cy="51.921001"
       r="2.7980001"
       id="circle2788" />
  </g>
  <circle
     cx="45.27"
     cy="50.941002"
     r="2.7980001"
     fill="#c35b5d"
     id="circle2792"
     style="fill:#f14c4c;fill-opacity:1" />
  <circle
     cx="54.936001"
     cy="50.941002"
     r="2.7980001"
     fill="#f0cb87"
     id="circle2794"
     style="fill:#f5f543;fill-opacity:1" />
  <circle
     cx="64.600998"
     cy="50.941002"
     r="2.7980001"
     fill="#74beae"
     id="circle2796"
     style="fill:#0dbc79;fill-opacity:1" />
  <g
     id="g2802">
    <path
       d="m 98.449,130.224 c -0.148,0.726 -0.786,1.248 -1.527,1.248 -0.935,0 -2.221,0 -3.278,0 -0.468,0 -0.911,-0.21 -1.206,-0.572 -0.296,-0.362 -0.414,-0.838 -0.321,-1.296 1.637,-8.06 8.074,-39.753 9.434,-46.452 0.148,-0.726 0.786,-1.248 1.527,-1.248 0.935,0 2.221,0 3.278,0 0.468,0 0.911,0.21 1.206,0.572 0.296,0.362 0.414,0.838 0.321,1.296 -1.637,8.06 -8.074,39.753 -9.434,46.452 z M 82.705,82.345 c 0.43,-0.43 1.077,-0.559 1.639,-0.326 0.563,0.233 0.929,0.782 0.929,1.39 0,1.41 0,2.876 0,3.681 0,0.399 -0.158,0.782 -0.44,1.064 -2.398,2.398 -13.894,13.894 -17.47,17.47 -0.588,0.588 -0.588,1.541 0,2.128 3.576,3.576 15.072,15.072 17.47,17.47 0.282,0.282 0.44,0.665 0.44,1.064 0,0.805 0,2.272 0,3.681 0,0.609 -0.366,1.157 -0.929,1.39 -0.562,0.233 -1.209,0.105 -1.639,-0.326 -5.733,-5.732 -19.37,-19.37 -23.279,-23.279 -0.588,-0.587 -0.588,-1.54 0,-2.128 3.909,-3.909 17.546,-17.547 23.279,-23.279 z m 34.59,0 c -0.43,-0.43 -1.077,-0.559 -1.639,-0.326 -0.563,0.233 -0.929,0.782 -0.929,1.39 0,1.41 0,2.876 0,3.681 0,0.399 0.158,0.782 0.44,1.064 2.398,2.398 13.894,13.894 17.47,17.47 0.588,0.588 0.588,1.541 0,2.128 -3.576,3.576 -15.072,15.072 -17.47,17.47 -0.282,0.282 -0.44,0.665 -0.44,1.064 0,0.805 0,2.272 0,3.681 0,0.609 0.366,1.157 0.929,1.39 0.562,0.233 1.209,0.105 1.639,-0.326 5.733,-5.732 19.37,-19.37 23.279,-23.279 0.588,-0.587 0.588,-1.54 0,-2.128 -3.909,-3.909 -17.546,-17.547 -23.279,-23.279 z"
       fill="#231f20"
       fill-opacity="0.25"
       id="path2798" />
    <path
       d="m 98.449,127.224 c -0.148,0.726 -0.786,1.248 -1.527,1.248 -0.935,0 -2.221,0 -3.278,0 -0.468,0 -0.911,-0.21 -1.206,-0.572 -0.296,-0.362 -0.414,-0.838 -0.321,-1.296 1.637,-8.06 8.074,-39.753 9.434,-46.452 0.148,-0.726 0.786,-1.248 1.527,-1.248 0.935,0 2.221,0 3.278,0 0.468,0 0.911,0.21 1.206,0.572 0.296,0.362 0.414,0.838 0.321,1.296 -1.637,8.06 -8.074,39.753 -9.434,46.452 z M 82.705,79.345 c 0.43,-0.43 1.077,-0.559 1.639,-0.326 0.563,0.233 0.929,0.782 0.929,1.39 0,1.41 0,2.876 0,3.681 0,0.399 -0.158,0.782 -0.44,1.064 -2.398,2.398 -13.894,13.894 -17.47,17.47 -0.588,0.588 -0.588,1.541 0,2.128 3.576,3.576 15.072,15.072 17.47,17.47 0.282,0.282 0.44,0.665 0.44,1.064 0,0.805 0,2.272 0,3.681 0,0.609 -0.366,1.157 -0.929,1.39 -0.562,0.233 -1.209,0.105 -1.639,-0.326 -5.733,-5.732 -19.37,-19.37 -23.279,-23.279 -0.588,-0.587 -0.588,-1.54 0,-2.128 3.909,-3.909 17.546,-17.547 23.279,-23.279 z m 34.59,0 c -0.43,-0.43 -1.077,-0.559 -1.639,-0.326 -0.563,0.233 -0.929,0.782 -0.929,1.39 0,1.41 0,2.876 0,3.681 0,0.399 0.158,0.782 0.44,1.064 2.398,2.398 13.894,13.894 17.47,17.47 0.588,0.588 0.588,1.541 0,2.128 -3.576,3.576 -15.072,15.072 -17.47,17.47 -0.282,0.282 -0.44,0.665 -0.44,1.064 0,0.805 0,2.272 0,3.681 0,0.609 0.366,1.157 0.929,1.39 0.562,0.233 1.209,0.105 1.639,-0.326 5.733,-5.732 19.37,-19.37 23.279,-23.279 0.588,-0.587 0.588,-1.54 0,-2.128 -3.909,-3.909 -17.546,-17.547 -23.279,-23.279 z"
       fill="#dcdccf"
       id="path2800"
       style="fill:#e5e5e5;fill-opacity:1" />
  </g>
</svg>
